<svg data-v-423bf9ae="" xmlns="http://www.w3.org/2000/svg" viewBox="0 0 345 90" class="iconLeft"><!----><!----><!----><g data-v-423bf9ae="" id="cc642ab6-2ab3-44ab-9b40-d7d7c44ef9ed" fill="black" transform="matrix(3.925159967842349,0,0,3.925159967842349,110.62920045645693,6.560907125317996)"><path d="M-0.05 13.04L-0.05 13.04L-0.05 13.04Q1.13 12.17 2.33 8.57L2.33 8.57L2.33 8.57Q3.03 6.47 3.30 4.79L3.30 4.79L3.30 4.79Q3.38 4.31 3.38 4.06L3.38 4.06L3.38 4.06Q3.10 4.07 2.86 4.21L2.86 4.21L2.34 4.50L2.34 4.50Q2.13 4.62 1.78 4.32L1.78 4.32L1.78 4.32Q1.43 4.02 1.46 3.81L1.46 3.81L1.46 3.81Q1.49 3.60 1.69 3.47L1.69 3.47L1.69 3.47Q1.89 3.34 2.16 3.24L2.16 3.24L2.16 3.24Q2.72 3.04 3.10 3.04L3.10 3.04L3.10 3.04Q3.48 3.04 3.77 3.10L3.77 3.10L3.77 3.10Q4.06 3.16 4.30 3.29L4.30 3.29L4.30 3.29Q4.85 3.61 4.86 4.20L4.86 4.20L4.86 4.20Q4.89 5.22 4.17 7.66L4.17 7.66L4.17 7.66Q3.04 11.52 1.50 13.08L1.50 13.08L1.50 13.08Q1.09 13.51 0.64 13.67L0.64 13.67L0.64 13.67Q0.51 13.72 0.39 13.72L0.39 13.72L0.39 13.72Q0.26 13.72 0.16 13.68L0.16 13.68L0.16 13.68Q0.05 13.63-0.01 13.56L-0.01 13.56L-0.01 13.56Q-0.16 13.43-0.16 13.28L-0.16 13.28L-0.16 13.28Q-0.16 13.12-0.05 13.04ZM10.01 7.89L10.01 7.89L10.01 7.89Q9.80 7.89 9.41 8.30L9.41 8.30L9.41 8.30Q9.02 8.70 8.73 9.04L8.73 9.04L8.15 9.73L7.03 11.16L7.03 11.16Q6.63 11.92 6.41 12.41L6.41 12.41L6.04 13.21L6.04 13.21Q5.89 13.50 5.79 13.62L5.79 13.62L5.79 13.62Q5.68 13.74 5.50 13.74L5.50 13.74L5.50 13.74Q5.32 13.74 5.15 13.68L5.15 13.68L5.15 13.68Q4.98 13.61 4.86 13.51L4.86 13.51L4.86 13.51Q4.60 13.29 4.60 13.03L4.60 13.03L4.60 13.03Q4.60 12.93 4.75 12.63L4.75 12.63L5.01 12.07L5.01 12.07Q5.13 11.83 5.30 11.44L5.30 11.44L5.68 10.51L5.68 10.51Q6.49 8.49 6.49 7.90L6.49 7.90L6.49 7.90Q6.49 7.59 6.28 7.44L6.28 7.44L6.15 7.34L6.15 7.34Q6.08 7.29 6.08 7.17L6.08 7.17L6.08 7.17Q6.08 7.05 6.17 6.95L6.17 6.95L6.17 6.95Q6.26 6.84 6.41 6.75L6.41 6.75L6.41 6.75Q6.72 6.60 7.03 6.60L7.03 6.60L7.03 6.60Q7.34 6.60 7.51 6.67L7.51 6.67L7.51 6.67Q7.68 6.73 7.80 6.85L7.80 6.85L7.80 6.85Q8.05 7.09 8.05 7.35L8.05 7.35L8.05 7.35Q8.05 7.61 7.99 7.87L7.99 7.87L7.99 7.87Q7.92 8.13 7.82 8.40L7.82 8.40L7.82 8.40Q7.72 8.67 7.62 8.93L7.62 8.93L7.62 8.93Q7.51 9.19 7.42 9.39L7.42 9.39L7.28 9.68L7.28 9.68Q7.23 9.79 7.25 9.75L7.25 9.75L7.25 9.75Q8.01 8.70 8.25 8.39L8.25 8.39L8.73 7.82L8.73 7.82Q9.26 7.21 9.56 7.01L9.56 7.01L9.56 7.01Q10.17 6.60 10.51 6.60L10.51 6.60L10.51 6.60Q10.86 6.60 11.10 6.69L11.10 6.69L11.10 6.69Q11.34 6.77 11.52 6.94L11.52 6.94L11.52 6.94Q11.89 7.29 11.89 7.83L11.89 7.83L11.89 7.83Q11.89 8.37 11.65 8.96L11.65 8.96L11.65 8.96Q11.40 9.54 11.22 9.91L11.22 9.91L11.22 9.91Q11.04 10.27 10.88 10.65L10.88 10.65L10.88 10.65Q10.36 11.79 10.36 12.31L10.36 12.31L10.36 12.31Q10.36 12.54 10.73 12.54L10.73 12.54L10.73 12.54Q11.02 12.54 11.26 12.42L11.26 12.42L11.26 12.42Q11.49 12.30 11.56 12.30L11.56 12.30L11.56 12.30Q11.70 12.30 11.70 12.44L11.70 12.44L11.70 12.44Q11.70 13.05 11.08 13.46L11.08 13.46L11.08 13.46Q10.66 13.74 10.32 13.74L10.32 13.74L10.32 13.74Q9.97 13.74 9.74 13.67L9.74 13.67L9.74 13.67Q9.51 13.59 9.33 13.43L9.33 13.43L9.33 13.43Q8.93 13.06 8.93 12.41L8.93 12.41L8.93 12.41Q8.93 11.62 9.43 10.43L9.43 10.43L9.43 10.43Q9.79 9.62 9.94 9.32L9.94 9.32L10.17 8.83L10.17 8.83Q10.38 8.39 10.38 8.14L10.38 8.14L10.38 8.14Q10.38 7.89 10.01 7.89ZM12.16 15.18L12.16 15.18L12.16 15.18Q12.16 15.03 12.38 14.60L12.38 14.60L12.38 14.60Q12.59 14.18 12.85 13.51L12.85 13.51L12.85 13.51Q13.10 12.85 13.34 12.13L13.34 12.13L13.34 12.13Q13.57 11.42 13.81 10.60L13.81 10.60L14.34 8.79L13.63 8.98L13.63 8.98Q13.36 8.98 13.19 8.70L13.19 8.70L13.19 8.70Q13.15 8.63 13.15 8.52L13.15 8.52L13.15 8.52Q13.15 8.42 13.32 8.28L13.32 8.28L13.32 8.28Q13.48 8.14 13.72 8.02L13.72 8.02L13.72 8.02Q14.20 7.77 14.70 7.64L14.70 7.64L14.77 7.45L14.77 7.45Q14.95 6.88 15.12 6.26L15.12 6.26L15.12 6.26Q15.29 5.64 15.47 5.05L15.47 5.05L15.47 5.05Q15.66 4.46 15.90 3.93L15.90 3.93L15.90 3.93Q16.14 3.40 16.46 3.01L16.46 3.01L16.46 3.01Q17.17 2.15 18.25 2.15L18.25 2.15L18.25 2.15Q19.04 2.15 19.50 2.57L19.50 2.57L19.50 2.57Q19.97 2.99 19.97 3.72L19.97 3.72L19.97 3.72Q19.97 4.47 19.54 5.02L19.54 5.02L19.54 5.02Q19.17 5.48 18.73 5.48L18.73 5.48L18.73 5.48Q18.18 5.48 17.98 4.98L17.98 4.98L17.98 4.98Q17.92 4.85 17.92 4.76L17.92 4.76L17.92 4.76Q17.92 4.61 18.13 4.48L18.13 4.48L18.13 4.48Q18.50 4.20 18.66 3.72L18.66 3.72L18.66 3.72Q18.70 3.57 18.70 3.42L18.70 3.42L18.70 3.42Q18.70 2.86 18.27 2.86L18.27 2.86L18.27 2.86Q17.66 2.86 17.16 4.22L17.16 4.22L17.16 4.22Q17.01 4.64 16.86 5.14L16.86 5.14L16.21 7.32L16.21 7.32Q16.84 7.23 17.12 7.23L17.12 7.23L17.12 7.23Q17.40 7.23 17.62 7.29L17.62 7.29L17.62 7.29Q17.84 7.36 18.02 7.47L18.02 7.47L18.02 7.47Q18.42 7.74 18.42 8.13L18.42 8.13L18.42 8.13Q18.42 8.52 18.04 8.52L18.04 8.52L17.17 8.48L17.17 8.48Q16.46 8.48 15.86 8.54L15.86 8.54L15.30 10.53L15.30 10.53Q14.75 12.54 14.40 13.46L14.40 13.46L14.40 13.46Q14.05 14.38 13.73 15.01L13.73 15.01L13.73 15.01Q13.42 15.59 12.79 15.59L12.79 15.59L12.79 15.59Q12.16 15.59 12.16 15.18ZM19.07 13.21L19.07 13.21L19.07 13.21Q18.79 12.93 18.62 12.51L18.62 12.51L18.62 12.51Q18.46 12.09 18.45 11.52L18.45 11.52L18.45 11.52Q18.44 10.94 18.59 10.36L18.59 10.36L18.59 10.36Q18.74 9.77 19.01 9.22L19.01 9.22L19.01 9.22Q19.28 8.67 19.66 8.20L19.66 8.20L19.66 8.20Q20.04 7.72 20.49 7.36L20.49 7.36L20.49 7.36Q21.49 6.60 22.57 6.60L22.57 6.60L22.57 6.60Q23.97 6.60 24.47 7.83L24.47 7.83L24.47 7.83Q24.83 8.73 24.51 10.00L24.51 10.00L24.51 10.00Q24.23 11.17 23.46 12.15L23.46 12.15L23.46 12.15Q22.70 13.13 21.67 13.54L21.67 13.54L21.67 13.54Q21.15 13.74 20.65 13.74L20.65 13.74L20.65 13.74Q20.15 13.74 19.75 13.61L19.75 13.61L19.75 13.61Q19.36 13.48 19.07 13.21ZM20.38 9.89L20.38 9.89L20.38 9.89Q20.17 10.40 20.05 10.93L20.05 10.93L20.05 10.93Q19.93 11.46 19.94 11.94L19.94 11.94L19.94 11.94Q19.95 12.41 20.09 12.68L20.09 12.68L20.09 12.68Q20.23 12.95 20.54 12.95L20.54 12.95L20.54 12.95Q20.86 12.95 21.16 12.74L21.16 12.74L21.16 12.74Q21.46 12.52 21.75 12.17L21.75 12.17L21.75 12.17Q22.04 11.81 22.29 11.35L22.29 11.35L22.29 11.35Q22.54 10.88 22.74 10.38L22.74 10.38L22.74 10.38Q23.15 9.28 23.14 8.42L23.14 8.42L23.14 8.42Q23.14 7.67 22.83 7.46L22.83 7.46L22.83 7.46Q22.71 7.38 22.49 7.38L22.49 7.38L22.49 7.38Q22.26 7.38 21.98 7.58L21.98 7.58L21.98 7.58Q21.69 7.79 21.40 8.13L21.40 8.13L21.40 8.13Q21.12 8.47 20.85 8.93L20.85 8.93L20.85 8.93Q20.58 9.39 20.38 9.89ZM26.87 11.01L26.87 11.01L26.81 11.54L26.81 11.54Q26.81 12.37 27.36 12.67L27.36 12.67L27.36 12.67Q27.56 12.77 27.82 12.77L27.82 12.77L27.82 12.77Q28.09 12.77 28.30 12.68L28.30 12.68L28.30 12.68Q28.51 12.58 28.65 12.43L28.65 12.43L28.65 12.43Q28.94 12.13 28.94 11.72L28.94 11.72L28.94 11.72Q28.94 11.32 28.77 10.99L28.77 10.99L28.77 10.99Q28.61 10.66 28.36 10.34L28.36 10.34L27.82 9.67L27.82 9.67Q27.15 8.87 26.93 8.22L26.93 8.22L26.93 8.22Q26.70 7.57 26.70 7.02L26.70 7.02L26.70 7.02Q26.70 6.47 26.83 5.98L26.83 5.98L26.83 5.98Q26.97 5.50 27.21 5.06L27.21 5.06L27.21 5.06Q27.45 4.61 27.78 4.25L27.78 4.25L27.78 4.25Q28.12 3.88 28.53 3.61L28.53 3.61L28.53 3.61Q29.38 3.04 30.22 3.04L30.22 3.04L30.22 3.04Q31.06 3.04 31.53 3.27L31.53 3.27L31.53 3.27Q32.01 3.50 32.29 3.86L32.29 3.86L32.29 3.86Q32.83 4.53 32.83 5.48L32.83 5.48L32.83 5.48Q32.83 6.36 32.33 7.14L32.33 7.14L32.33 7.14Q31.87 7.85 31.30 8.04L31.30 8.04L31.30 8.04Q31.18 8.10 30.96 8.10L30.96 8.10L30.96 8.10Q30.75 8.10 30.60 8.04L30.60 8.04L30.60 8.04Q30.45 7.97 30.34 7.86L30.34 7.86L30.34 7.86Q30.11 7.62 30.11 7.34L30.11 7.34L30.11 7.34Q30.11 7.15 30.22 7.09L30.22 7.09L30.22 7.09Q30.74 6.81 31.12 6.28L31.12 6.28L31.12 6.28Q31.54 5.69 31.56 5.12L31.56 5.12L31.56 5.12Q31.58 4.54 31.28 4.26L31.28 4.26L31.28 4.26Q30.99 3.99 30.50 3.99L30.50 3.99L30.50 3.99Q30.00 3.99 29.61 4.21L29.61 4.21L29.61 4.21Q29.21 4.43 28.92 4.81L28.92 4.81L28.92 4.81Q28.31 5.61 28.31 6.71L28.31 6.71L28.31 6.71Q28.31 7.44 28.81 8.26L28.81 8.26L28.81 8.26Q29.03 8.61 29.27 8.94L29.27 8.94L29.27 8.94Q29.52 9.28 29.74 9.64L29.74 9.64L29.74 9.64Q30.24 10.47 30.24 11.12L30.24 11.12L30.24 11.12Q30.24 11.78 30.01 12.23L30.01 12.23L30.01 12.23Q29.77 12.68 29.38 13.02L29.38 13.02L29.38 13.02Q28.54 13.74 27.47 13.74L27.47 13.74L27.47 13.74Q26.46 13.74 25.91 13.14L25.91 13.14L25.91 13.14Q25.47 12.65 25.47 12.09L25.47 12.09L25.47 12.09Q25.47 11.47 25.82 11.05L25.82 11.05L25.82 11.05Q26.09 10.73 26.33 10.66L26.33 10.66L26.33 10.66Q26.87 10.52 26.87 11.01ZM32.27 13.01L32.27 13.01L32.27 13.01Q32.18 12.78 32.18 12.49L32.18 12.49L32.18 12.49Q32.18 12.20 32.28 11.84L32.28 11.84L32.28 11.84Q32.38 11.48 32.54 11.09L32.54 11.09L32.54 11.09Q32.70 10.71 32.88 10.29L32.88 10.29L33.25 9.47L33.25 9.47Q33.96 7.90 33.78 7.60L33.78 7.60L33.78 7.60Q33.69 7.47 33.47 7.34L33.47 7.34L33.47 7.34Q33.39 7.29 33.39 7.17L33.39 7.17L33.39 7.17Q33.39 7.05 33.49 6.95L33.49 6.95L33.49 6.95Q33.58 6.84 33.74 6.75L33.74 6.75L33.74 6.75Q34.08 6.60 34.41 6.60L34.41 6.60L34.41 6.60Q34.75 6.60 34.92 6.67L34.92 6.67L34.92 6.67Q35.10 6.74 35.21 6.85L35.21 6.85L35.21 6.85Q35.43 7.08 35.43 7.35L35.43 7.35L35.43 7.35Q35.43 7.62 35.34 7.96L35.34 7.96L35.34 7.96Q35.25 8.30 35.11 8.70L35.11 8.70L35.11 8.70Q34.97 9.09 34.79 9.52L34.79 9.52L34.79 9.52Q34.32 10.62 34.16 10.98L34.16 10.98L33.91 11.50L33.91 11.50Q33.69 11.98 33.69 12.17L33.69 12.17L33.69 12.17Q33.69 12.36 33.76 12.44L33.76 12.44L33.76 12.44Q33.82 12.52 33.98 12.52L33.98 12.52L33.98 12.52Q34.14 12.52 34.33 12.39L34.33 12.39L34.33 12.39Q34.53 12.27 34.75 12.07L34.75 12.07L34.75 12.07Q34.98 11.86 35.22 11.59L35.22 11.59L35.22 11.59Q35.46 11.32 35.70 11.03L35.70 11.03L35.70 11.03Q36.31 10.27 36.60 9.73L36.60 9.73L36.60 9.73Q38.08 7.01 38.17 6.89L38.17 6.89L38.17 6.89Q38.39 6.60 38.62 6.60L38.62 6.60L38.62 6.60Q38.85 6.60 39.02 6.65L39.02 6.65L39.02 6.65Q39.19 6.70 39.31 6.79L39.31 6.79L39.31 6.79Q39.59 6.99 39.48 7.24L39.48 7.24L39.48 7.24Q39.38 7.49 39.22 7.92L39.22 7.92L39.22 7.92Q37.93 11.68 37.54 12.61L37.54 12.61L37.54 12.61Q37.15 13.54 36.87 14.11L36.87 14.11L36.87 14.11Q36.58 14.67 36.19 15.24L36.19 15.24L36.19 15.24Q35.81 15.82 35.37 16.29L35.37 16.29L35.37 16.29Q34.37 17.36 33.50 17.43L33.50 17.43L33.50 17.43Q33.16 17.46 32.96 17.34L32.96 17.34L32.96 17.34Q32.62 17.13 32.62 16.95L32.62 16.95L32.62 16.95Q32.62 16.76 32.93 16.69L32.93 16.69L32.93 16.69Q33.24 16.62 33.57 16.40L33.57 16.40L33.57 16.40Q33.91 16.19 34.21 15.90L34.21 15.90L34.21 15.90Q35.12 15.04 35.62 14.03L35.62 14.03L35.62 14.03Q36.04 13.14 36.30 12.35L36.30 12.35L36.83 10.72L36.83 10.72Q36.63 10.96 36.39 11.28L36.39 11.28L35.90 11.94L35.90 11.94Q35.26 12.75 34.84 13.09L34.84 13.09L34.84 13.09Q34.03 13.74 33.39 13.74L33.39 13.74L33.39 13.74Q32.55 13.74 32.27 13.01ZM44.91 7.89L44.91 7.89L44.91 7.89Q44.69 7.89 44.30 8.30L44.30 8.30L44.30 8.30Q43.91 8.70 43.63 9.04L43.63 9.04L43.05 9.73L41.92 11.16L41.92 11.16Q41.53 11.92 41.30 12.41L41.30 12.41L40.93 13.21L40.93 13.21Q40.79 13.50 40.68 13.62L40.68 13.62L40.68 13.62Q40.58 13.74 40.40 13.74L40.40 13.74L40.40 13.74Q40.22 13.74 40.05 13.68L40.05 13.68L40.05 13.68Q39.88 13.61 39.76 13.51L39.76 13.51L39.76 13.51Q39.50 13.29 39.50 13.03L39.50 13.03L39.50 13.03Q39.50 12.93 39.65 12.63L39.65 12.63L39.91 12.07L39.91 12.07Q40.03 11.83 40.20 11.44L40.20 11.44L40.58 10.51L40.58 10.51Q41.38 8.49 41.38 7.90L41.38 7.90L41.38 7.90Q41.38 7.59 41.18 7.44L41.18 7.44L41.04 7.34L41.04 7.34Q40.97 7.29 40.97 7.17L40.97 7.17L40.97 7.17Q40.97 7.05 41.07 6.95L41.07 6.95L41.07 6.95Q41.16 6.84 41.31 6.75L41.31 6.75L41.31 6.75Q41.62 6.60 41.93 6.60L41.93 6.60L41.93 6.60Q42.24 6.60 42.41 6.67L42.41 6.67L42.41 6.67Q42.58 6.73 42.70 6.85L42.70 6.85L42.70 6.85Q42.95 7.09 42.95 7.35L42.95 7.35L42.95 7.35Q42.95 7.61 42.89 7.87L42.89 7.87L42.89 7.87Q42.82 8.13 42.72 8.40L42.72 8.40L42.72 8.40Q42.62 8.67 42.51 8.93L42.51 8.93L42.51 8.93Q42.40 9.19 42.31 9.39L42.31 9.39L42.18 9.68L42.18 9.68Q42.12 9.79 42.15 9.75L42.15 9.75L42.15 9.75Q42.91 8.70 43.15 8.39L43.15 8.39L43.63 7.82L43.63 7.82Q44.15 7.21 44.45 7.01L44.45 7.01L44.45 7.01Q45.06 6.60 45.41 6.60L45.41 6.60L45.41 6.60Q45.76 6.60 46.00 6.69L46.00 6.69L46.00 6.69Q46.24 6.77 46.42 6.94L46.42 6.94L46.42 6.94Q46.79 7.29 46.79 7.83L46.79 7.83L46.79 7.83Q46.79 8.37 46.55 8.96L46.55 8.96L46.55 8.96Q46.30 9.54 46.12 9.91L46.12 9.91L46.12 9.91Q45.94 10.27 45.77 10.65L45.77 10.65L45.77 10.65Q45.26 11.79 45.26 12.31L45.26 12.31L45.26 12.31Q45.26 12.54 45.63 12.54L45.63 12.54L45.63 12.54Q45.92 12.54 46.15 12.42L46.15 12.42L46.15 12.42Q46.39 12.30 46.46 12.30L46.46 12.30L46.46 12.30Q46.60 12.30 46.60 12.44L46.60 12.44L46.60 12.44Q46.60 13.05 45.98 13.46L45.98 13.46L45.98 13.46Q45.56 13.74 45.21 13.74L45.21 13.74L45.21 13.74Q44.86 13.74 44.64 13.67L44.64 13.67L44.64 13.67Q44.41 13.59 44.23 13.43L44.23 13.43L44.23 13.43Q43.83 13.06 43.83 12.41L43.83 12.41L43.83 12.41Q43.83 11.62 44.32 10.43L44.32 10.43L44.32 10.43Q44.69 9.62 44.84 9.32L44.84 9.32L45.07 8.83L45.07 8.83Q45.28 8.39 45.28 8.14L45.28 8.14L45.28 8.14Q45.28 7.89 44.91 7.89ZM51.46 11.88L51.46 11.88L51.46 11.88Q51.66 11.88 51.66 12.15L51.66 12.15L51.66 12.15Q51.66 12.37 51.52 12.58L51.52 12.58L51.52 12.58Q51.34 12.98 50.78 13.34L50.78 13.34L50.78 13.34Q50.16 13.74 49.52 13.74L49.52 13.74L49.52 13.74Q48.42 13.74 48.13 12.76L48.13 12.76L48.13 12.76Q47.78 11.59 49.17 7.80L49.17 7.80L49.17 7.80Q48.38 7.73 48.32 7.53L48.32 7.53L48.32 7.53Q48.30 7.46 48.30 7.39L48.30 7.39L48.30 7.39Q48.30 7.32 48.36 7.23L48.36 7.23L48.36 7.23Q48.43 7.13 48.53 7.04L48.53 7.04L48.53 7.04Q48.77 6.84 49.01 6.84L49.01 6.84L49.55 6.84L49.55 6.84Q50.29 5.11 50.61 4.87L50.61 4.87L50.61 4.87Q50.76 4.76 50.94 4.76L50.94 4.76L50.94 4.76Q51.13 4.76 51.25 4.81L51.25 4.81L51.25 4.81Q51.37 4.86 51.47 4.95L51.47 4.95L51.47 4.95Q51.69 5.15 51.69 5.41L51.69 5.41L51.69 5.41Q51.69 5.54 51.60 5.72L51.60 5.72L51.10 6.82L51.26 6.82L51.26 6.82Q51.69 6.82 51.95 6.82L51.95 6.82L51.95 6.82Q51.95 6.82 52.34 6.81L52.34 6.81L52.34 6.81Q52.47 6.80 52.66 6.80L52.66 6.80L52.66 6.80Q52.86 6.80 52.86 6.95L52.86 6.95L52.86 6.95Q52.86 7.85 50.72 7.85L50.72 7.85L50.67 7.85L50.20 9.05L50.20 9.05Q49.42 11.18 49.42 12.04L49.42 12.04L49.42 12.04Q49.42 12.28 49.53 12.41L49.53 12.41L49.53 12.41Q49.64 12.54 49.94 12.54L49.94 12.54L49.94 12.54Q50.24 12.54 50.48 12.44L50.48 12.44L50.48 12.44Q50.73 12.34 50.91 12.21L50.91 12.21L50.91 12.21Q51.10 12.09 51.23 11.98L51.23 11.98L51.23 11.98Q51.37 11.88 51.46 11.88ZM57.79 7.89L57.79 7.89L57.79 7.89Q57.42 7.89 56.44 9.04L56.44 9.04L55.88 9.73L54.78 11.16L54.78 11.16Q54.39 11.92 54.16 12.41L54.16 12.41L53.79 13.21L53.79 13.21Q53.65 13.50 53.54 13.62L53.54 13.62L53.54 13.62Q53.44 13.74 53.26 13.74L53.26 13.74L53.26 13.74Q53.07 13.74 52.91 13.68L52.91 13.68L52.91 13.68Q52.74 13.61 52.62 13.51L52.62 13.51L52.62 13.51Q52.36 13.29 52.36 13.03L52.36 13.03L52.36 13.03Q52.36 12.93 52.50 12.63L52.50 12.63L52.77 12.07L52.77 12.07Q54.05 9.44 55.09 5.40L55.09 5.40L55.09 5.40Q55.47 3.91 55.64 2.72L55.64 2.72L55.64 2.72Q55.72 2.15 56.21 2.15L56.21 2.15L56.21 2.15Q56.52 2.15 56.72 2.30L56.72 2.30L56.72 2.30Q57.12 2.59 57.11 2.93L57.11 2.93L57.11 2.93Q57.09 3.26 57.01 3.68L57.01 3.68L57.01 3.68Q56.93 4.09 56.80 4.58L56.80 4.58L56.80 4.58Q56.67 5.07 56.51 5.61L56.51 5.61L56.51 5.61Q56.05 6.99 55.84 7.59L55.84 7.59L55.84 7.59Q55.17 9.43 55.01 9.75L55.01 9.75L55.01 9.75Q55.11 9.63 55.28 9.41L55.28 9.41L55.28 9.41Q56.52 7.78 56.81 7.46L56.81 7.46L56.81 7.46Q57.11 7.14 57.31 6.97L57.31 6.97L57.31 6.97Q57.74 6.60 58.41 6.60L58.41 6.60L58.41 6.60Q58.95 6.60 59.27 6.96L59.27 6.96L59.27 6.96Q59.58 7.31 59.58 7.72L59.58 7.72L59.58 7.72Q59.58 8.13 59.49 8.47L59.49 8.47L59.49 8.47Q59.40 8.80 59.25 9.14L59.25 9.14L59.25 9.14Q59.11 9.48 58.94 9.84L58.94 9.84L58.60 10.56L58.60 10.56Q58.12 11.65 58.12 12.17L58.12 12.17L58.12 12.17Q58.12 12.54 58.42 12.54L58.42 12.54L58.42 12.54Q58.71 12.54 58.94 12.42L58.94 12.42L58.94 12.42Q59.18 12.30 59.25 12.30L59.25 12.30L59.25 12.30Q59.39 12.30 59.39 12.44L59.39 12.44L59.39 12.44Q59.39 13.05 58.78 13.46L58.78 13.46L58.78 13.46Q58.35 13.74 58.00 13.74L58.00 13.74L58.00 13.74Q57.65 13.74 57.43 13.67L57.43 13.67L57.43 13.67Q57.20 13.60 57.02 13.43L57.02 13.43L57.02 13.43Q56.62 13.06 56.62 12.35L56.62 12.35L56.62 12.35Q56.62 11.57 57.12 10.40L57.12 10.40L57.86 8.83L57.86 8.83Q58.07 8.39 58.07 8.14L58.07 8.14L58.07 8.14Q58.07 7.89 57.79 7.89Z"></path></g><!----><g data-v-423bf9ae="" id="b7702adc-f799-4cb2-bf65-ee00f2bd2767" transform="matrix(1.1816140876804915,0,0,1.1816140876804915,-13.164704017813634,-13.163931847785022)" stroke="none" fill="black"><path d="M47 21.916h-2c-18.242 0-33.084 14.842-33.084 33.084 0 18.241 14.842 33.082 33.084 33.082S78.084 73.241 78.084 55v-2H47V21.916zM74.016 57C72.984 72.106 60.364 84.082 45 84.082c-16.037 0-29.084-13.046-29.084-29.082 0-15.364 11.977-27.984 27.084-29.016V57h31.016zM55.047 11.918l-2.003-.003V47h35.04v-2c0-18.217-14.82-33.057-33.037-33.082zM57.044 43V15.989C71.466 16.996 83.03 28.576 84.016 43H57.044z"></path></g><!----></svg>